<svg width="24" height="24" viewBox="0 0 24 24" fill="none" xmlns="http://www.w3.org/2000/svg">
<rect width="24" height="24" fill="white"/>
<path d="M3.37486 9H11.4437V10.5456H5.49468C4.64486 10.5456 4.69203 11.6229 4.69203 11.6229H10.0273V13.0748H4.69203C4.69203 13.0748 4.64486 14.0584 5.49468 14.0584H19.3758C19.848 14.0584 19.848 12.9343 19.3758 12.9343H13.8989C12.8602 12.8875 12.3652 12.0071 12.3408 11.0608C12.3143 10.0327 12.8602 9 13.8989 9H22.0198V10.5456H16.0707C15.5042 10.5456 15.5514 11.7634 16.0707 11.7634H21.3249C21.7735 11.7634 22.2273 11.9075 22.5057 12.2563C23.3278 13.2863 22.985 14.2926 22.4829 14.9416C22.2198 15.2818 21.784 15.4167 21.3518 15.4167H3.51169C3.20169 15.4167 2.89274 15.3462 2.63093 15.1815C1.51145 14.4774 1.04562 13.6194 1.00264 12.3254C0.95602 10.9216 1.52571 9.71198 2.73076 9.13007C2.9302 9.03376 3.15304 9 3.37486 9Z" fill="black"/>
</svg>
