<svg width="24" height="28" viewBox="0 0 24 28" fill="none" xmlns="http://www.w3.org/2000/svg">
<path d="M3.37486 11H11.4437V12.5456H5.49468C4.64486 12.5456 4.69203 13.6229 4.69203 13.6229H10.0273V15.0748H4.69203C4.69203 15.0748 4.64486 16.0584 5.49468 16.0584H19.3758C19.848 16.0584 19.848 14.9343 19.3758 14.9343H13.8989C12.8602 14.8875 12.3652 14.0071 12.3408 13.0608C12.3143 12.0327 12.8602 11 13.8989 11H22.0198V12.5456H16.0707C15.5042 12.5456 15.5514 13.7634 16.0707 13.7634H21.3249C21.7735 13.7634 22.2273 13.9075 22.5057 14.2563C23.3278 15.2863 22.985 16.2926 22.4829 16.9416C22.2198 17.2818 21.784 17.4167 21.3518 17.4167H3.51169C3.20169 17.4167 2.89274 17.3462 2.63093 17.1815C1.51145 16.4774 1.04562 15.6194 1.00264 14.3254C0.95602 12.9216 1.52571 11.712 2.73076 11.1301C2.9302 11.0338 3.15304 11 3.37486 11Z" fill="white"/>
</svg>
