<svg width="24" height="28" viewBox="0 0 24 28" fill="none" xmlns="http://www.w3.org/2000/svg">
<path d="M11.9437 11V10.5H11.4437H3.37486C3.10602 10.5 2.80212 10.5404 2.51333 10.6798C1.08715 11.3685 0.451472 12.7929 0.50292 14.342C0.526294 15.0458 0.666138 15.6679 0.977559 16.2202C1.28944 16.7734 1.75267 17.2198 2.36473 17.6047L2.63093 17.1815L2.36473 17.6047C2.72256 17.8298 3.12879 17.9167 3.51169 17.9167H21.3518C21.8703 17.9167 22.4854 17.7556 22.8784 17.2476L22.4829 16.9416L22.8784 17.2475C23.1684 16.8727 23.4309 16.3721 23.4884 15.7911C23.5474 15.195 23.3856 14.5573 22.8965 13.9444C22.4905 13.4358 21.8641 13.2634 21.3249 13.2634H16.18C16.1792 13.2606 16.1785 13.2577 16.1777 13.2547C16.1695 13.2225 16.1642 13.1847 16.1635 13.1448C16.1627 13.1079 16.166 13.074 16.1716 13.0456H22.0198H22.5198V12.5456V11V10.5H22.0198H13.8989C13.1892 10.5 12.6482 10.8619 12.307 11.3637C12.1409 11.6078 12.0206 11.8856 11.9437 12.177V11ZM10.0273 13.1229H5.31043C5.32076 13.1091 5.33091 13.0982 5.34054 13.0898C5.36043 13.0723 5.39818 13.0456 5.49468 13.0456H11.4437H11.8404C11.8406 13.055 11.8408 13.0644 11.841 13.0737C11.8552 13.6229 12.0058 14.1872 12.3386 14.6337C12.682 15.0943 13.2024 15.4034 13.8763 15.4338L13.8876 15.4343H13.8989H19.226C19.2285 15.4535 19.2299 15.4744 19.2299 15.4964C19.2299 15.5183 19.2285 15.5392 19.226 15.5584H10.5273V15.0748V13.6229V13.1229H10.0273Z" fill="white" stroke="black"/>
</svg>
